# AST/ASF file generated using VICON BodyLanguage
# -----------------------------------------------
:version 1.10
:name VICON
:units
  mass 1.0
  length 0.45
  angle deg
:documentation
   .ast/.asf automatically generated from VICON data using
   VICON BodyBuilder and BodyLanguage model FoxedUp or BRILLIANT.MOD
:root
   order TX TY TZ RX RY RZ
   axis XYZ
   position 0 0 0  
   orientation 0 0 0 
:bonedata
  begin
     id 1 
     name lhipjoint
     direction 0.537252 -0.787203 0.302774 
     length 2.29576 
     axis 0 0 0  XYZ
  end
  begin
     id 2 
     name lfemur
     direction 0.34202 -0.939693 0  
     length 7.31114  
     axis 0 0 20  XYZ
    dof rx ry rz
    limits (-160.0 20.0)
           (-70.0 70.0)
           (-60.0 70.0)
  end
  begin
     id 3 
     name ltibia
     direction 0.34202 -0.939693 0   
     length 8.36008   
     axis 0 0 20   XYZ
    dof rx
    limits (-10.0 170.0)
  end
  begin
     id 4 
     name lfoot
     direction 0.0969116 -0.266263 0.959016   
     length 2.16704   
     axis -90 7.62852e-016 20   XYZ
    dof rx rz
    limits (-45.0 90.0)
           (-70.0 20.0)
  end
  begin
     id 5 
     name ltoes
     direction 1.53563e-011 -4.21779e-011 1   
     length 1.08338   
     axis -90 7.62852e-016 20   XYZ
    dof rx
    limits (-90.0 20.0)
  end
  begin
     id 6 
     name rhipjoint
     direction -0.588228 -0.754791 0.290308   
     length 2.39434  
     axis 0 0 0  XYZ 
  end
  begin
     id 7 
     name rfemur
     direction -0.34202 -0.939693 0   
     length 7.45207   
     axis 0 0 -20   XYZ
    dof rx ry rz
    limits (-160.0 20.0)
           (-70.0 70.0)
           (-70.0 60.0)
  end
  begin
     id 8 
     name rtibia
     direction -0.34202 -0.939693 0   
     length 8.03565   
     axis 0 0 -20   XYZ
    dof rx
    limits (-10.0 170.0)
 end
 begin
     id 9 
     name rfoot
     direction -0.107009 -0.294004 0.949795   
     length 2.11509  
     axis -90 -7.62852e-016 -20   XYZ
    dof rx rz
    limits (-45.0 90.0)
           (-20.0 70.0)
  end
  begin
     id 10 
     name rtoes
     direction -1.53533e-011 -4.22004e-011 1   
     length 1.05493   
     axis -90 -7.62852e-016 -20   XYZ
    dof rx
    limits (-90.0 20.0)
  end
  begin
     id 11 
     name lowerback
     direction -0.0115208 0.997969 -0.0626515   
     length 2.03153   
     axis 0 0 0   XYZ
    dof rx ry rz
    limits (-20.0 45.0)
           (-30.0 30.0)
           (-30.0 30.0)
  end
  begin
     id 12 
     name upperback
     direction -0.00423475 0.999974 -0.00583614   
     length 2.03619   
     axis 0 0 0   XYZ
    dof rx ry rz
    limits (-20.0 45.0)
           (-30.0 30.0)
           (-30.0 30.0)
  end
  begin
     id 13 
     name thorax
     direction 0.00289429 0.999728 0.0231573   
     length 2.03921   
     axis 0 0 0   XYZ
    dof rx ry rz
    limits (-20.0 45.0)
           (-30.0 30.0)
           (-30.0 30.0)
  end
  begin
     id 14 
     name lowerneck
     direction 0.0188995 0.987777 0.154721   
     length 1.78836   
     axis 0 0 0   XYZ
    dof rx ry rz
    limits (-20.0 45.0)
           (-30.0 30.0)
           (-30.0 30.0)
  end
  begin
     id 15 
     name upperneck
     direction -0.00612612 0.992995 -0.118   
     length 1.81789   
     axis 0 0 0   XYZ
    dof rx ry rz
    limits (-20.0 45.0)
           (-30.0 30.0)
           (-30.0 30.0)
  end
  begin
     id 16
     name head
     direction -0.00420226 0.998397 -0.0564482  
     length 1.82234  
     axis 0 0 0   XYZ
    dof rx ry rz
    limits (-20.0 45.0)
           (-30.0 30.0)
           (-30.0 30.0)
  end
  begin
     id 17 
     name lclavicle
     direction 0.916488 0.396539 0.0529676  
     length 3.51732  
     axis 0 0 0   XYZ
    dof ry rz
    limits (-20.0 10.0)
           (0.0 20.0)
  end
  begin
     id 18 
     name lhumerus
     direction 1 -4.4896e-011 8.36962e-028   
     length 5.45077   
     axis 180 -30 -90   XYZ
    dof rx ry rz
    limits (-60.0 90.0)
           (-90.0 90.0)
           (-90.0 90.0)
  end
  begin
     id 19
     name lradius
     direction 1 -4.48962e-011 3.01407e-027   
     length 3.05488   
     axis 180 -30 -90   XYZ
    dof rx
    limits (-10.0 170.0)
  end
  begin
     id 20
     name lwrist
     direction 1 -4.49002e-011 4.72961e-027   
     length 1.52744   
     axis -2.72261e-015 90 90   XYZ
    dof ry
    limits (-180.0 0.0)
 end
  begin
     id 21 
     name lhand
     direction 1 -4.4899e-011 9.45681e-027   
     length 0.638818   
     axis -6.0311e-015 90 90   XYZ
    dof rx rz
    limits (-90.0 90.0)
           (-45.0 45.0)
  end
  begin
     id 22 
     name lfingers
     direction 1 -4.48871e-011 1.88632e-026   
     length 0.515032   
     axis -1.20625e-014 90 90   XYZ
    dof rx
    limits (0.0 90.0)
  end
  begin
     id 23
     name lthumb
     direction 0.707107 -6.34964e-011 0.707107   
     length 0.739485   
     axis -90 45 6.32835e-014   XYZ
    dof rx rz
    limits (-45.0 45.0)
           (-45.0 45.0)
  end
  begin
     id 24 
     name rclavicle
     direction -0.949427 0.303202 0.0815894   
     length 3.76167  
     axis 0 0 0   XYZ 
    dof ry rz
    limits (-10.0 20.0)
           (-20.0 0.0)
  end
  begin
     id 25 
     name rhumerus
     direction -1 -4.48971e-011 -6.43969e-018  
     length 4.88702   
     axis 180 30 90   XYZ
    dof rx ry rz
    limits (-90.0 60.0)
           (-90.0 90.0)
           (-90.0 90.0)
  end
  begin
     id 26 
     name rradius
     direction -1 -4.48987e-011 5.46662e-027   
     length 3.22603   
     axis 180 30 90   XYZ
    dof rx
    limits (-10.0 170.0)
  end
  begin
     id 27 
     name rwrist
     direction -1 -4.48956e-011 4.72476e-027   
     length 1.61302   
     axis -2.72261e-015 -90 -90   XYZ
    dof ry
    limits (-180.0 0.0)
  end
  begin
     id 28
     name rhand
     direction -1 -4.4889e-011 9.43571e-027   
     length 0.716293   
     axis -6.0311e-015 -90 -90   XYZ
    dof rx rz
    limits (-90.0 90.0)
           (-45.0 45.0)
  end
  begin
     id 29
     name rfingers
     direction -1 -4.48887e-011 1.88701e-026   
     length 0.577494   
     axis -1.20625e-014 -90 -90   XYZ
    dof rx
    limits (0.0 90.0)
  end
  begin
     id 30
     name rthumb
     direction -0.707107 -6.34825e-011 0.707107   
     length 0.829169   
     axis -90 -45 -6.32835e-014   XYZ
    dof rx rz
    limits (-45.0 45.0)
           (-45.0 45.0)
  end
:hierarchy
  begin
    root lhipjoint rhipjoint lowerback
    lhipjoint lfemur
    lfemur ltibia
    ltibia lfoot
    lfoot ltoes
    rhipjoint rfemur
    rfemur rtibia
    rtibia rfoot
    rfoot rtoes
    lowerback upperback
    upperback thorax
    thorax lowerneck lclavicle rclavicle
    lowerneck upperneck
    upperneck head
    lclavicle lhumerus
    lhumerus lradius
    lradius lwrist
    lwrist lhand lthumb
    lhand lfingers
    rclavicle rhumerus
    rhumerus rradius
    rradius rwrist
    rwrist rhand rthumb
    rhand rfingers
  end

#!OML:ASF F:\VICON\USERDATA\INSTALL\rory3\rory3.ASF
:FULLY-SPECIFIED
:DEGREES
255
root -0.382252 9.81139 0.3105 243.155 109.279 221.253
lowerback 41.6838 -2.82183 9.28421
upperback 10.0012 2.26369 4.91784
thorax -8.51183 1.41576 -0.472723
lowerneck -16.1715 -15.4036 -7.97593
upperneck 1.70601 -19.96 11.3834
head 4.978 -9.42463 2.67324
rclavicle -3.18055e-015 -3.65764e-014
rhumerus 83.4657 -39.1582 -108.713
rradius 29.4565
rwrist -161.832
rhand -27.7012 -5.16699
rfingers 7.12502
rthumb -1.09728 -35.1439
lclavicle -3.18055e-015 -3.65764e-014
lhumerus -39.1944 -1.79971 68.2727
lradius 83.2494
lwrist 35.7921
lhand -26.4197 33.7671
lfingers 7.12502
lthumb 0.14043 63.7468
rfemur -132.009 -36.1877 32.9944
rtibia 135.484
rfoot -14.6459 31.638
rtoes -16.2752
lfemur -136.71 50.5179 -69.4266
ltibia 136.614
lfoot -2.25302 -36.4977
ltoes -7.11943
256
root -0.386506 9.77801 0.317931 243.328 109.316 221.571
lowerback 41.7693 -2.79242 9.10792
upperback 10.0476 2.25385 4.98434
thorax -8.50073 1.41534 -0.309359
lowerneck -16.2327 -15.4424 -8.06454
upperneck 1.68442 -19.9994 11.4888
head 5.00465 -9.43726 2.70512
rclavicle 2.22639e-014 -1.43125e-014
rhumerus 84.0711 -39.1159 -109.548
rradius 29.3046
rwrist -161.861
rhand -27.2844 -5.05194
rfingers 7.12502
rthumb -0.694767 -35.0305
lclavicle 2.22639e-014 -1.43125e-014
lhumerus -39.2668 -1.70764 68.3322
lradius 82.9617
lwrist 35.8901
lhand -26.273 34.0318
lfingers 7.12502
lthumb 0.282066 64.0114
rfemur -132.436 -36.4481 33.2161
rtibia 135.747
rfoot -14.3435 31.9418
rtoes -15.9163
lfemur -137.142 50.7543 -69.8082
ltibia 136.838
lfoot -2.10815 -36.6556
ltoes -6.97575
257
root -0.388549 9.74562 0.325483 243.636 109.413 221.955
lowerback 41.7453 -2.77274 8.9683
upperback 10.092 2.21558 4.96343
thorax -8.45329 1.40353 -0.246551
lowerneck -16.1584 -15.4571 -8.10987
upperneck 1.56641 -20.0223 11.6627
head 4.98367 -9.44637 2.76574
rclavicle 5.40694e-014 5.24792e-014
rhumerus 84.8059 -39.1141 -110.646
rradius 29.1425
rwrist -161.87
rhand -26.9075 -5.01593
rfingers 7.12502
rthumb -0.330727 -34.9954
lclavicle 5.40694e-014 5.24792e-014
lhumerus -39.3053 -1.62453 68.2916
lradius 82.7627
lwrist 36.0465
lhand -25.8805 34.4516
lfingers 7.12502
lthumb 0.661182 64.4303
rfemur -132.993 -36.7279 33.4351
rtibia 136.032
rfoot -14.1078 32.1938
rtoes -15.7443
lfemur -137.515 50.8572 -70.1855
ltibia 137.03
lfoot -2.05938 -36.7296
ltoes -6.86979
258
root -0.388611 9.7178 0.333045 243.661 109.317 222.09
lowerback 41.7653 -2.82116 9.02222
upperback 10.1219 2.19054 4.98827
thorax -8.42437 1.39618 -0.235956
lowerneck -16.038 -15.4781 -8.20551
upperneck 1.50414 -20.0508 11.8267
head 4.97739 -9.45896 2.82978
rclavicle -1.90833e-014 2.70347e-014
rhumerus 86.0391 -38.9948 -112.493
rradius 28.8863
rwrist -161.306
rhand -26.8598 -5.29252
rfingers 7.12502
rthumb -0.284644 -35.2721
lclavicle -1.90833e-014 2.70347e-014
lhumerus -39.4026 -1.52332 68.2565
lradius 82.4413
lwrist 36.0238
lhand -25.6248 34.5594
lfingers 7.12502
lthumb 0.908169 64.5372
rfemur -133.36 -36.9506 33.7771
rtibia 136.307
rfoot -14.028 32.2882
rtoes -15.7447
lfemur -138.066 51.1595 -70.5765
ltibia 137.236
lfoot -1.96076 -36.9492
ltoes -6.70399
259
root -0.389335 9.69024 0.33908 243.827 109.25 222.459
lowerback 41.8542 -2.88903 9
upperback 10.1401 2.13066 5.05514
thorax -8.4375 1.37162 -0.128148
lowerneck -15.9457 -15.5024 -8.42901
upperneck 1.54797 -20.0658 11.9819
head 5.0185 -9.46107 2.90328
rclavicle 6.99722e-014 6.67916e-014
rhumerus 87.0229 -38.8364 -114.052
rradius 28.7216
rwrist -160.791
rhand -26.9595 -5.53455
rfingers 7.12502
rthumb -0.380978 -35.514
lclavicle 6.99722e-014 6.67916e-014
lhumerus -39.5972 -1.34917 68.2952
lradius 82.081
lwrist 35.9029
lhand -25.6129 34.2789
lfingers 7.12502
lthumb 0.919625 64.2567
rfemur -133.734 -37.3272 34.1028
rtibia 136.605
rfoot -14.1367 32.4172
rtoes -16.3174
lfemur -138.46 51.5039 -70.9381
ltibia 137.464
lfoot -1.96362 -37.1848
ltoes -6.81297
260
root -0.390984 9.66402 0.345027 244.095 109.273 222.962
lowerback 41.9845 -2.92066 8.89652
upperback 10.1634 2.08497 5.10945
thorax -8.46098 1.35384 0.000967424
lowerneck -15.8215 -15.5329 -8.58524
upperneck 1.4754 -20.0888 12.0802
head 5.00561 -9.47545 2.95798
rclavicle -1.59028e-014 1.90833e-014
rhumerus 87.8823 -38.753 -115.439
rradius 28.6346
rwrist -160.483
rhand -26.9787 -5.56329
rfingers 7.12502
rthumb -0.399498 -35.5427
lclavicle -1.59028e-014 1.90833e-014
lhumerus -39.7176 -1.22225 68.3759
lradius 81.8258
lwrist 35.775
lhand -25.5719 34.2703
lfingers 7.12502
lthumb 0.959188 64.2479
rfemur -134.049 -37.7561 34.286
rtibia 136.863
rfoot -14.1205 32.6459
rtoes -16.6211
lfemur -138.786 51.9944 -71.3721
ltibia 137.736
lfoot -1.92979 -37.5907
ltoes -6.67603
261
root -0.385961 9.63683 0.350877 244.423 109.354 223.463
lowerback 41.9909 -2.92228 8.78588
upperback 10.2083 2.04583 5.12779
thorax -8.42163 1.34166 0.0919391
lowerneck -15.7651 -15.5689 -8.68131
upperneck 1.39179 -20.1254 12.1814
head 4.99551 -9.49378 3.00001
rclavicle -4.45278e-014 -5.40694e-014
rhumerus 89.0428 -38.657 -117.222
rradius 28.4994
rwrist -160.057
rhand -27.2996 -5.53593
rfingers 7.12502
rthumb -0.709413 -35.5145
lclavicle -4.45278e-014 -5.40694e-014
lhumerus -39.7589 -1.15748 68.4463
lradius 81.5162
lwrist 35.6153
lhand -25.5981 34.2961
lfingers 7.12502
lthumb 0.933915 64.2738
rfemur -134.431 -38.21 34.5453
rtibia 137.109
rfoot -14.2654 32.8981
rtoes -17.0087
lfemur -139.324 52.6698 -72.0555
ltibia 138.101
lfoot -1.75075 -38.1499
ltoes -5.82554
262
root -0.378665 9.60733 0.358243 244.61 109.4 223.766
lowerback 41.9395 -2.88977 8.57542
upperback 10.2352 2.00874 5.22724
thorax -8.39545 1.32645 0.318028
lowerneck -15.8121 -15.5496 -8.86684
upperneck 1.52951 -20.0754 12.2117
head 5.06248 -9.46136 3.03061
rclavicle -7.95139e-014 -3.33958e-014
rhumerus 89.8536 -38.4605 -118.601
rradius 28.3145
rwrist -159.978
rhand -27.6319 -5.44603
rfingers 7.12502
rthumb -1.03044 -35.4233
lclavicle -7.95139e-014 -3.33958e-014
lhumerus -39.9531 -0.930932 68.52
lradius 81.1481
lwrist 35.4652
lhand -25.5988 34.1007
lfingers 7.12502
lthumb 0.933278 64.0784
rfemur -134.832 -38.5511 34.8336
rtibia 137.374
rfoot -14.4109 33.1161
rtoes -17.5911
lfemur -139.858 53.0482 -72.608
ltibia 138.321
lfoot -1.40329 -38.4097
ltoes -5.05358
263
root -0.376819 9.58172 0.364228 244.637 109.338 223.956
lowerback 42.0296 -2.91021 8.50858
upperback 10.2326 1.99347 5.34854
thorax -8.43573 1.31828 0.488007
lowerneck -15.8064 -15.5225 -9.02597
upperneck 1.59261 -20.0083 12.1524
head 5.08279 -9.43004 3.04171
rclavicle -2.8625e-014 3.65764e-014
rhumerus 90.4375 -38.327 -119.616
rradius 28.1593
rwrist -160.162
rhand -27.8458 -5.36962
rfingers 7.12502
rthumb -1.23699 -35.3458
lclavicle -2.8625e-014 3.65764e-014
lhumerus -40.185 -0.659405 68.5845
lradius 80.8899
lwrist 35.3729
lhand -25.4907 34.0598
lfingers 7.12502
lthumb 1.03764 64.0371
rfemur -135.068 -38.777 35.0661
rtibia 137.609
rfoot -14.5542 33.1804
rtoes -18.2088
lfemur -140.207 53.1484 -72.9025
ltibia 138.383
lfoot -1.27246 -38.3819
ltoes -4.93068
264
root -0.378444 9.55675 0.369008 244.805 109.288 224.241
lowerback 42.0398 -2.95571 8.57876
upperback 10.2348 1.97478 5.35882
thorax -8.43303 1.31159 0.471876
lowerneck -15.7433 -15.488 -8.9877
upperneck 1.52916 -19.9611 12.0826
head 5.03683 -9.41481 3.03075
rclavicle 6.36111e-015 5.40694e-014
rhumerus 91.0959 -38.3645 -120.663
rradius 28.0053
rwrist -160.349
rhand -28.1244 -5.25011
rfingers 7.12502
rthumb -1.50608 -35.2245
lclavicle 6.36111e-015 5.40694e-014
lhumerus -40.2677 -0.542576 68.5408
lradius 80.6695
lwrist 35.2139
lhand -25.6373 34.1808
lfingers 7.12502
lthumb 0.896014 64.1586
rfemur -135.371 -39.0142 35.3117
rtibia 137.824
rfoot -14.4722 33.2912
rtoes -18.1451
lfemur -140.624 53.2225 -73.2376
ltibia 138.5
lfoot -0.969092 -38.3465
ltoes -4.4624
265
root -0.382757 9.52856 0.375087 245.02 109.352 224.565
lowerback 42.061 -2.92503 8.4167
upperback 10.2232 1.95898 5.41735
thorax -8.46561 1.30289 0.621552
lowerneck -15.664 -15.4533 -9.11182
upperneck 1.51432 -19.8934 12.0659
head 5.02339 -9.38626 3.05726
rclavicle 4.77083e-014 -9.54166e-015
rhumerus 91.8222 -38.2496 -121.858
rradius 27.8221
rwrist -160.353
rhand -28.5334 -5.06094
rfingers 7.12502
rthumb -1.90111 -35.0322
lclavicle 4.77083e-014 -9.54166e-015
lhumerus -40.4052 -0.315181 68.5564
lradius 80.3674
lwrist 34.8198
lhand -25.9224 34.3923
lfingers 7.12502
lthumb 0.620741 64.3711
rfemur -135.748 -39.1975 35.4654
rtibia 138.051
rfoot -14.3533 33.3812
rtoes -18.158
lfemur -141.085 53.3712 -73.694
ltibia 138.683
lfoot -0.831007 -38.3557
ltoes -4.21384
